<svg width="42" height="42" fill="none" xmlns="http://www.w3.org/2000/svg"><path d="M9.203 12.797C4.68 12.797 1 16.477 1 21a8.182 8.182 0 0 0 2.628 6.011 6.479 6.479 0 0 1 3.791-2.983A3.517 3.517 0 0 1 5.688 21a3.52 3.52 0 0 1 3.515-3.516A3.52 3.52 0 0 1 12.72 21a3.517 3.517 0 0 1-1.732 3.028 6.478 6.478 0 0 1 3.792 2.983A8.182 8.182 0 0 0 17.406 21c0-4.523-3.68-8.203-8.203-8.203z" fill="#BF0A21" stroke="#BF0A21"/><path d="M9.203 26.116c-1.53 0-2.939.871-3.639 2.234a8.154 8.154 0 0 0 3.64.853 8.153 8.153 0 0 0 3.638-.853 4.109 4.109 0 0 0-3.639-2.235zm0-3.944a1.172 1.172 0 1 0 0-2.344 1.172 1.172 0 0 0 0 2.344zm18.018-6.958a6.478 6.478 0 0 1 3.792-2.983 3.517 3.517 0 0 1-1.732-3.028 3.52 3.52 0 0 1 3.516-3.515 3.52 3.52 0 0 1 3.516 3.515 3.517 3.517 0 0 1-1.732 3.028 6.478 6.478 0 0 1 3.791 2.983A8.182 8.182 0 0 0 41 9.204C41 4.68 37.32 1 32.797 1s-8.203 3.68-8.203 8.203a8.182 8.182 0 0 0 2.627 6.011z" fill="#BF0A21" stroke="#BF0A21"/><path d="M29.158 16.553a8.153 8.153 0 0 0 3.64.853 8.153 8.153 0 0 0 3.638-.853 4.108 4.108 0 0 0-3.639-2.234c-1.53 0-2.94.871-3.639 2.234zm3.639-6.178a1.172 1.172 0 1 0 0-2.344 1.172 1.172 0 0 0 0 2.344zm0 14.219c-4.523 0-8.203 3.68-8.203 8.203a8.182 8.182 0 0 0 2.627 6.011 6.479 6.479 0 0 1 3.792-2.983 3.517 3.517 0 0 1-1.732-3.028 3.52 3.52 0 0 1 3.516-3.516 3.52 3.52 0 0 1 3.516 3.516 3.517 3.517 0 0 1-1.732 3.028 6.479 6.479 0 0 1 3.791 2.983A8.182 8.182 0 0 0 41 32.797c0-4.523-3.68-8.203-8.203-8.203z" fill="#BF0A21" stroke="#BF0A21"/><path d="M32.797 37.912c-1.53 0-2.94.872-3.639 2.235a8.153 8.153 0 0 0 3.64.853 8.153 8.153 0 0 0 3.638-.853 4.108 4.108 0 0 0-3.639-2.235zm0-3.943a1.172 1.172 0 1 0 0-2.344 1.172 1.172 0 0 0 0 2.344z" fill="#BF0A21" stroke="#BF0A21"/><path d="M17.69 14.746c.463.627.859 1.307 1.175 2.028l4.602-2.657a10.474 10.474 0 0 1-.864-2.207l-4.913 2.836zm0 12.508l4.913 2.836c.205-.774.497-1.514.864-2.207l-4.602-2.657a10.55 10.55 0 0 1-1.175 2.028z" fill="#BF0A21"/></svg>