<svg width="36" height="36" fill="none" xmlns="http://www.w3.org/2000/svg"><path d="M1.055 36H20.18c.582 0 1.054-.472 1.054-1.055V33.82a2.11 2.11 0 0 0-2.109-2.11v-1.26a3.032 3.032 0 0 0-3.028-3.028H5.137A3.032 3.032 0 0 0 2.11 30.45v1.26A2.11 2.11 0 0 0 0 33.82v1.125C0 35.528.472 36 1.055 36zM13.2 23.227a2.11 2.11 0 1 0 3.37-2.539l-6.348-8.423a2.11 2.11 0 1 0-3.37 2.54l6.348 8.422zm15.161-11.425a2.11 2.11 0 0 0 3.37-2.539L25.383.84a2.109 2.109 0 1 0-3.369 2.54l6.347 8.422zm-4.626 6.128c1.559-1.175 2.729-2.634 3.461-4.17l-7.386-9.8c-1.678.28-3.402 1.003-4.962 2.178-1.559 1.174-2.729 2.633-3.46 4.168l7.385 9.802c1.678-.28 3.402-1.003 4.962-2.178zm2.848.274c-.491.5-1.008.98-1.579 1.41-.57.43-1.174.795-1.79 1.13l1.375 1.824 3.37-2.538-1.376-1.826z" fill="#BF0A21"/><path d="M25.2 16.2l-3.6 2.7 10.606 13.776a2.11 2.11 0 1 0 3.369-2.539L25.2 16.2z" fill="#BF0A21"/></svg>