<svg width="32" height="31" fill="none" xmlns="http://www.w3.org/2000/svg"><path d="M1.069 4.791L11 1.556l10 3.258 9.869-3.215a.1.1 0 0 1 .131.095v24.225a.1.1 0 0 1-.069.095L21 29.249l-10-3.258-9.869 3.216A.1.1 0 0 1 1 29.11V4.886a.1.1 0 0 1 .069-.095z" fill="#BF0A21"/><path d="M11 1.556L1.069 4.79A.1.1 0 0 0 1 4.886v24.225a.1.1 0 0 0 .131.096L11 25.99m0-24.435l10 3.258M11 1.556V25.99M21 4.814l9.869-3.215a.1.1 0 0 1 .131.095v24.225a.1.1 0 0 1-.069.095L21 29.249m0-24.435v24.435m0 0l-10-3.258" stroke="#FFD800" stroke-width="1.5"/></svg>