<svg width="36" height="26" fill="none" xmlns="http://www.w3.org/2000/svg"><path d="M1 2.51a1 1 0 0 1 1-1h31.333a1 1 0 0 1 1 1v20.807a1 1 0 0 1-1 1H2a1 1 0 0 1-1-1V2.511z" fill="#BF0A21" stroke="#FFD800" stroke-width="1.5"/><path d="M15.167 8.027c-1.381 0-2.5 1.072-2.5 2.395 0 .397.02.856.286 1.356.095.18.223.365.392.555.201.225.703.688 1.297 1.217 1.295 1.154 3.025 2.622 3.025 2.622s1.73-1.468 3.024-2.622c.594-.529 1.096-.992 1.297-1.217.17-.19.297-.375.393-.555.265-.5.286-.959.286-1.356 0-1.323-1.12-2.395-2.5-2.395-1.173 0-2.23.774-2.5 1.818-.27-1.044-1.327-1.818-2.5-1.818z" fill="#BF0A21"/><path d="M21.988 12.333l-.559-.5.56.5zm-8.643 0l.559-.5-.559.5zm-.392-.555l.662-.351-.662.351zm1.689 1.772l-.499.56.499-.56zm3.025 2.622l-.486.572.486.412.485-.412-.485-.572zm3.024-2.622l.5.56-.5-.56zm-3.024-3.705l-.727.187a.75.75 0 0 0 1.453 0l-.726-.187zm-4.25.577c0-.879.753-1.645 1.75-1.645v-1.5c-1.765 0-3.25 1.378-3.25 3.145h1.5zm10 0c0-1.767-1.486-3.145-3.25-3.145v1.5c.997 0 1.75.766 1.75 1.645h1.5zm-.87 2.41c.208-.231.37-.466.496-.702l-1.325-.703a2.06 2.06 0 0 1-.289.406l1.118 1zm.496-.702c.355-.667.374-1.28.374-1.708h-1.5c0 .366-.022.672-.199 1.005l1.325.703zm-.223.256l11.953-8.638-.879-1.216-11.953 8.639.879 1.215zm-8.916-.553a2.064 2.064 0 0 1-.289-.406l-1.325.703c.126.236.289.47.496.703l1.118-1zm-.289-.406c-.177-.333-.198-.64-.198-1.005h-1.5c0 .428.019 1.04.373 1.708l1.325-.703zM.561 3.747l11.953 8.64.878-1.216L1.44 2.53.561 3.749zm12.225 9.086c.236.264.774.758 1.357 1.277l.998-1.12c-.604-.539-1.07-.97-1.237-1.157l-1.118 1zm1.357 1.277a159.393 159.393 0 0 0 2.746 2.385l.215.183.057.049.015.012.004.004h.001l.486-.571.485-.572-.001-.001-.004-.003-.014-.012a23.248 23.248 0 0 1-.27-.23 157.47 157.47 0 0 1-2.722-2.364l-.998 1.12zm7.286-2.277c-.167.186-.632.618-1.237 1.157l.998 1.12c.583-.52 1.121-1.013 1.357-1.277l-1.118-1zm-1.237 1.157a156.77 156.77 0 0 1-2.721 2.364l-.213.181-.057.049-.015.012-.003.003h-.001v.001l.485.572.485.572.001-.001.004-.004.015-.012a23.119 23.119 0 0 1 .272-.232l.739-.633a155.05 155.05 0 0 0 2.007-1.752l-.998-1.12zm-5.025-4.213c.868 0 1.598.578 1.774 1.255l1.452-.375c-.364-1.41-1.75-2.38-3.226-2.38v1.5zm5-1.5c-1.477 0-2.862.97-3.227 2.38l1.453.375c.175-.677.905-1.255 1.774-1.255v-1.5z" fill="#FFD800"/></svg>