<svg width="200" height="56" fill="none" xmlns="http://www.w3.org/2000/svg"><path fill-rule="evenodd" clip-rule="evenodd" d="M48.963 40.039C70.604 41.3 88.188 47.704 100 56c-23.354-8.296-73.49-8.386-100-7.034 18.215-8.837 27.863-10.19 48.963-8.927z" fill="#BF0A21"/><path fill-rule="evenodd" clip-rule="evenodd" d="M38.864 0h-.541l-3.156 8.026c-.631 1.623-.631 1.172-1.623 1.533l-1.443.36-1.352 3.427-.541 4.148-.451 7.936s-1.353 1.353-1.894.902c-.541-.451-.992-.722-.992-.722s-1.352 2.435-1.352 4.149c-.09 1.803-.722 5.68-1.353 7.033-.631 1.353-1.262 2.615-1.262 2.615s-6.763 4.51-8.296 5.05c-1.623.632-5.771 2.435-5.771 2.435h72.227c-.902-.631-2.164-1.082-2.705-1.894l-.27-1.442-.451-2.165-.451-1.893-.812-.18-.45-2.165-1.894-2.886-.992-.36c-.18-.27-.27-.722-.541-.812l-1.443 2.435-.992 1.352v2.886c1.623 3.066 3.156 4.78 3.607 5.14l2.615 1.443c-1.082-.45-2.164-.631-3.156-1.262-.992-1.443-2.705-3.337-3.426-5.411l-1.443-4.78-.722-5.77-.27-4.87-1.984-.18-1.082-1.714-1.352-.36-.09.81-3.247-3.787s-3.066-1.082-3.517-1.623c-.45-.54-1.713-4.509-1.713-4.509l-1.893-1.172-2.345-5.681-1.172-2.976L47.52.902 45.356 0l-.811 1.082-1.533 4.058-1.082-.54-.541-2.254L39.766.45 38.864 0z" fill="#BF0A21"/><path fill-rule="evenodd" clip-rule="evenodd" d="M51.037 15.781c-1.533.36-2.524 1.984-2.074 3.607.361 1.533 1.984 2.525 3.607 2.074 1.533-.36 2.525-1.984 2.074-3.607-.45-1.533-2.074-2.435-3.607-2.074zm-11.18 5.05c3.155.09 5.41 1.623 6.942 4.058 1.533-.812 3.246-1.353 4.69-1.443 4.598-.18 9.467 3.156 11.45 7.124.993 1.894.993 2.795-.09 2.164-.27-.18-.63-.45-1.081-.811-.27.721-1.623 2.344-1.894 2.615-3.607 3.968-2.434 8.477-1.984 13.166 0 .27.09 1.262-.09 1.533-.27-.09-.721-.902-.811-1.082a25.916 25.916 0 0 1-1.623-3.608c-.18-.45-.271-1.532-.812-1.532s-.631.991-.812 1.442c-.36 1.173-.901 2.255-1.532 3.337-.09.27-.812 1.262-1.083 1.353-.36-.361-.09-2.165 0-2.525.361-1.984.992-4.78.541-6.764-.09-.45-.27-.992-.45-1.442-.722-1.714-1.894-3.157-3.066-4.51-.541-.09-1.082-.72-1.443-1.713-.27-.811-.721-1.623-.992-2.435-.54.361-1.172.992-1.713 1.624 0 4.509.992 11.542 1.082 12.715.45 3.246.27 8.657-2.344 2.525-1.173-2.886-1.894-6.493-2.255-9.65-.18-1.442-.811-1.172-.992.271-.36 3.066-1.082 6.583-2.254 9.379-.45 1.082-1.984 4.779-2.434 1.533-.18-1.263-.09-2.706.09-3.968.18-1.623 2.074-16.232.54-16.412-.72.18-.901 5.5-2.163 7.214-.812 1.082-1.533.721-1.804-1.623 0-2.075.09-5.14 1.353-7.756 1.352-2.795 3.607-4.689 7.033-4.78zm9.016 11.723c.902.541 1.714 1.172 1.804 1.262 2.524 1.804 4.598 1.624 7.213 0 .812-.54 1.623-1.082 2.525-1.623.27-.18.812-.54 1.082-.45-1.533-1.353-4.328-4.239-7.033-4.239-2.254 0-4.058 1.443-3.787 4.058.63 2.164-.451.631-1.804-.27.09.36.09.811 0 1.262zm-9.468-18.757a3.035 3.035 0 0 0-2.164 3.607 3.035 3.035 0 0 0 3.607 2.164 3.035 3.035 0 0 0 2.164-3.607c-.36-1.623-1.984-2.525-3.607-2.164zM51.85 31.562c.36 1.262 1.713 1.984 3.066 1.713 1.352-.36 2.164-1.623 1.803-2.885-.27-1.082-1.353-1.804-2.525-1.804-1.442.09-2.795 1.443-2.344 2.976zm-3.697 4.329c-.09.36-.09.72-.18.901-.271 1.443-.632 2.886-.902 4.329-.451 2.435-.541 6.673 1.984 1.893.54-.992.991-1.893 1.352-2.885-.18-.812-.54-1.623-.992-2.345a9.88 9.88 0 0 0-1.262-1.893z" fill="#FFD800"/><path fill-rule="evenodd" clip-rule="evenodd" d="M100 16.584h3.129l.279 1.81h.139c.695-.627 1.39-1.184 2.086-1.601.695-.418 1.53-.557 2.434-.557 1.46 0 2.573.487 3.268 1.462.696.974 1.043 2.366 1.043 4.176v8.702h-3.894v-8.214c0-1.044-.139-1.74-.417-2.158-.278-.418-.765-.627-1.391-.627-.556 0-.974.14-1.391.348-.417.21-.834.627-1.391 1.114v9.537H100V16.584zm80.25 25.339c-.695 0-1.39-.21-2.016-.557a3.465 3.465 0 0 1-1.461-1.532 5.175 5.175 0 0 1 0-4.664 3.464 3.464 0 0 1 1.461-1.531c.626-.348 1.251-.557 2.016-.557.696 0 1.391.209 2.017.557a3.457 3.457 0 0 1 1.46 1.531c.348.696.557 1.462.557 2.367s-.209 1.67-.557 2.297a3.457 3.457 0 0 1-1.46 1.532c-.626.348-1.252.557-2.017.557zm0-1.88c.557 0 .904-.209 1.252-.696.278-.418.417-1.044.417-1.81s-.139-1.392-.417-1.81c-.278-.418-.695-.696-1.252-.696-.556 0-.973.209-1.251.696-.279.418-.418 1.044-.418 1.81s.139 1.392.418 1.81c.347.487.765.696 1.251.696zm5.842-6.683h1.877l.139 1.462h.07c.278-.557.626-.974 1.043-1.253.417-.278.835-.418 1.321-.418.418 0 .696.07.974.14l-.417 2.018s-.139-.07-.278-.07c-.14-.069-.348-.069-.557-.069-.347 0-.695.14-1.043.418-.348.278-.626.696-.834 1.183v4.943h-2.295V33.36zm9.318 11.974c-1.043 0-1.877-.21-2.503-.557-.626-.348-.974-.905-.974-1.601 0-.697.417-1.253 1.182-1.74v-.07c-.486-.348-.765-.766-.765-1.393 0-.278.07-.556.279-.835a3.3 3.3 0 0 1 .695-.696v-.07c-.348-.209-.556-.556-.765-.905-.209-.348-.278-.835-.278-1.253 0-.626.139-1.183.487-1.6.278-.488.695-.836 1.251-1.045a4.203 4.203 0 0 1 1.669-.348c.418 0 .835.07 1.252.209h2.99v1.67h-1.39c.069.14.208.279.278.557.069.21.069.418.069.697 0 .905-.278 1.6-.904 2.088-.626.487-1.391.696-2.364.696-.348 0-.696-.07-1.043-.14-.139.07-.209.21-.278.28-.07.069-.07.208-.07.347 0 .21.07.348.278.488.209.139.557.139.974.139h1.391c1.043 0 1.808.14 2.364.487.556.348.765.905.765 1.601 0 .557-.209 1.044-.556 1.532-.348.487-.904.835-1.6 1.044-.695.278-1.53.418-2.434.418zm.139-7.658c.348 0 .696-.139.904-.417.209-.279.348-.627.348-1.114 0-.488-.139-.836-.348-1.044-.208-.279-.556-.349-.904-.349-.347 0-.695.14-.904.349a1.714 1.714 0 0 0-.347 1.044c0 .487.139.835.347 1.114.278.278.557.417.904.417zm.209 6.196a3.24 3.24 0 0 0 1.46-.348c.348-.21.557-.488.557-.836 0-.278-.139-.487-.348-.557-.209-.07-.556-.139-1.043-.139h-.974c-.487 0-.904-.07-1.112-.14-.348.28-.487.558-.487.906s.139.626.487.766c.417.278.904.348 1.46.348zm-79.764-27.288h3.13l.278 1.81h.139c.695-.696 1.321-1.253 2.017-1.601a4.584 4.584 0 0 1 2.225-.557c.974 0 1.808.209 2.364.626.626.418 1.113.975 1.461 1.81a9.222 9.222 0 0 1 2.086-1.74 4.372 4.372 0 0 1 2.295-.627c1.46 0 2.573.488 3.268 1.462.696.975 1.043 2.367 1.043 4.177v8.701h-3.824v-8.283c0-1.044-.139-1.74-.418-2.158-.278-.418-.765-.627-1.39-.627-.765 0-1.6.487-2.573 1.462v9.537h-3.825v-8.214c0-1.044-.139-1.74-.417-2.158-.279-.418-.765-.627-1.391-.627-.765 0-1.6.487-2.573 1.462v9.537h-3.895V16.584zm27.539 14.34c-1.252 0-2.226-.418-2.991-1.183-.765-.766-1.112-1.81-1.112-2.994 0-1.462.626-2.645 1.877-3.48 1.252-.836 3.269-1.393 6.05-1.671-.069-1.532-.834-2.228-2.294-2.228-.557 0-1.183.14-1.808.348-.626.21-1.252.557-1.948.975l-1.39-2.576c1.947-1.253 3.963-1.81 5.841-1.81 1.808 0 3.129.557 4.033 1.602.904 1.044 1.391 2.575 1.391 4.663v8.075h-3.129l-.278-1.461h-.07c-1.391 1.113-2.782 1.74-4.172 1.74zm1.321-2.993a2.4 2.4 0 0 0 1.252-.349c.417-.208.834-.556 1.251-.974v-2.715c-1.529.209-2.642.487-3.268.905-.626.418-.974.905-.974 1.532 0 .487.14.835.418 1.113.347.348.765.488 1.321.488zm10.014-11.347h3.129l.278 1.392h.139c.557-.557 1.252-.974 1.948-1.253a4.57 4.57 0 0 1 2.086-.487c1.669 0 3.06.626 4.033 1.949.974 1.253 1.461 2.993 1.461 5.22 0 1.532-.279 2.855-.835 4.038-.556 1.184-1.252 2.019-2.156 2.646a4.99 4.99 0 0 1-2.92.905c-1.183 0-2.295-.488-3.408-1.532l.139 2.228v4.176h-3.825V16.584h-.069zm6.259 11.138c.834 0 1.529-.348 2.016-1.114.557-.766.765-1.81.765-3.272 0-2.645-.904-3.968-2.642-3.968-.835 0-1.739.418-2.643 1.323v5.987c.835.765 1.669 1.044 2.504 1.044zm9.805-11.138v19.282h3.825V31.69l-.139-2.228c1.112.975 2.225 1.462 3.407 1.462a4.993 4.993 0 0 0 2.921-.905c.904-.627 1.599-1.462 2.156-2.645.556-1.114.834-2.506.834-4.038 0-2.158-.487-3.898-1.46-5.22-.974-1.254-2.295-1.95-4.034-1.95-.695 0-1.391.14-2.086.488-.695.348-1.321.765-1.947 1.253h-.139l-.278-1.393h-3.06v.07zm6.259 11.138c-.835 0-1.669-.348-2.434-.975v-5.986c.904-.905 1.738-1.323 2.642-1.323 1.739 0 2.643 1.323 2.643 3.968 0 1.462-.278 2.506-.765 3.272-.557.696-1.252 1.044-2.086 1.044zm14.742 3.202c-1.738 0-3.129-.627-4.172-1.95-1.043-1.322-1.53-3.062-1.53-5.36 0-1.461.278-2.784.834-3.898.557-1.113 1.252-1.949 2.156-2.575.904-.627 1.808-.905 2.851-.905.765 0 1.391.139 1.878.348.556.278 1.043.626 1.599 1.114l-.139-2.158v-4.873h3.895v19.84h-3.13l-.278-1.463h-.069c-.557.557-1.113.975-1.809 1.253-.695.418-1.39.627-2.086.627zm1.043-3.202c.487 0 .904-.14 1.322-.348.417-.21.765-.557 1.182-1.044v-5.987c-.696-.627-1.53-.975-2.504-.975-.765 0-1.39.348-1.947 1.045-.556.696-.765 1.74-.765 3.062 0 1.393.209 2.437.696 3.133.417.766 1.112 1.114 2.016 1.114z" fill="#BF0A21"/><path d="M174.131 37.398H100v1.88h74.131v-1.88z" fill="#FFD800"/></svg>