<svg width="14" height="12" fill="none" xmlns="http://www.w3.org/2000/svg"><path d="M13.595 2.058a5.42 5.42 0 0 1-1.557.418 2.693 2.693 0 0 0 1.189-1.49 5.323 5.323 0 0 1-1.716.653A2.697 2.697 0 0 0 9.536.786a2.702 2.702 0 0 0-2.704 2.703c0 .21.025.419.067.62a7.685 7.685 0 0 1-5.575-2.83 2.702 2.702 0 0 0 .837 3.616A2.723 2.723 0 0 1 .94 4.553v.034c0 1.314.93 2.402 2.168 2.653a2.858 2.858 0 0 1-.711.092c-.176 0-.344-.016-.511-.041a2.708 2.708 0 0 0 2.528 1.875 5.415 5.415 0 0 1-3.357 1.155 5.62 5.62 0 0 1-.653-.034A7.64 7.64 0 0 0 4.555 11.5c4.972 0 7.693-4.118 7.693-7.693 0-.117 0-.234-.009-.351a5.813 5.813 0 0 0 1.356-1.398z" fill="#55ACEE"/></svg>